<svg width="50" height="50" viewBox="0 0 50 50" fill="none" xmlns="http://www.w3.org/2000/svg">
<g clip-path="url(#clip0_9:649)">
<path d="M-3.05176e-05 39.5835C0.00327752 42.3452 1.10181 44.9928 3.05459 46.9455C5.00738 48.8983 7.65498 49.9969 10.4166 50.0002H39.5833C42.345 49.9969 44.9926 48.8983 46.9453 46.9455C48.8981 44.9928 49.9967 42.3452 50 39.5835V20.8335H-3.05176e-05V39.5835ZM35.4166 30.2085C36.0347 30.2085 36.6389 30.3918 37.1528 30.7352C37.6667 31.0785 38.0672 31.5666 38.3038 32.1376C38.5403 32.7086 38.6022 33.337 38.4816 33.9432C38.361 34.5493 38.0634 35.1062 37.6263 35.5432C37.1893 35.9802 36.6325 36.2779 36.0263 36.3984C35.4201 36.519 34.7918 36.4571 34.2208 36.2206C33.6497 35.9841 33.1617 35.5836 32.8183 35.0697C32.4749 34.5557 32.2916 33.9516 32.2916 33.3335C32.2916 32.5047 32.6209 31.7098 33.2069 31.1238C33.793 30.5377 34.5878 30.2085 35.4166 30.2085ZM25 30.2085C25.618 30.2085 26.2222 30.3918 26.7361 30.7352C27.25 31.0785 27.6506 31.5666 27.8871 32.1376C28.1236 32.7086 28.1855 33.337 28.0649 33.9432C27.9443 34.5493 27.6467 35.1062 27.2097 35.5432C26.7726 35.9802 26.2158 36.2779 25.6096 36.3984C25.0034 36.519 24.3751 36.4571 23.8041 36.2206C23.2331 35.9841 22.745 35.5836 22.4016 35.0697C22.0582 34.5557 21.875 33.9516 21.875 33.3335C21.875 32.5047 22.2042 31.7098 22.7903 31.1238C23.3763 30.5377 24.1712 30.2085 25 30.2085ZM14.5833 30.2085C15.2014 30.2085 15.8056 30.3918 16.3195 30.7352C16.8334 31.0785 17.2339 31.5666 17.4704 32.1376C17.7069 32.7086 17.7688 33.337 17.6483 33.9432C17.5277 34.5493 17.2301 35.1062 16.793 35.5432C16.356 35.9802 15.7992 36.2779 15.193 36.3984C14.5868 36.519 13.9584 36.4571 13.3874 36.2206C12.8164 35.9841 12.3283 35.5836 11.985 35.0697C11.6416 34.5557 11.4583 33.9516 11.4583 33.3335C11.4583 32.5047 11.7875 31.7098 12.3736 31.1238C12.9596 30.5377 13.7545 30.2085 14.5833 30.2085V30.2085Z" fill="#505960"/>
<path d="M39.5833 4.16667H37.5V2.08333C37.5 1.5308 37.2805 1.0009 36.8898 0.610194C36.4991 0.219493 35.9692 0 35.4167 0C34.8641 0 34.3342 0.219493 33.9435 0.610194C33.5528 1.0009 33.3333 1.5308 33.3333 2.08333V4.16667H16.6667V2.08333C16.6667 1.5308 16.4472 1.0009 16.0565 0.610194C15.6658 0.219493 15.1359 0 14.5833 0C14.0308 0 13.5009 0.219493 13.1102 0.610194C12.7195 1.0009 12.5 1.5308 12.5 2.08333V4.16667H10.4167C7.65501 4.16998 5.00741 5.2685 3.05462 7.22129C1.10184 9.17408 0.00330804 11.8217 0 14.5833L0 16.6667H50V14.5833C49.9967 11.8217 48.8982 9.17408 46.9454 7.22129C44.9926 5.2685 42.345 4.16998 39.5833 4.16667V4.16667Z" fill="#505960"/>
</g>
<defs>
<clipPath id="clip0_9:649">
<rect width="50" height="50" fill="white"/>
</clipPath>
</defs>
</svg>
