<svg width="25" height="25" viewBox="0 0 25 25" fill="none" xmlns="http://www.w3.org/2000/svg">
<g clip-path="url(#clip0_503:1327)">
<path d="M24.0846 9.44683L16.1836 1.54474C15.2057 0.569733 13.8812 0.0222168 12.5003 0.0222168C11.1194 0.0222168 9.7948 0.569733 8.81692 1.54474L0.915882 9.44683C0.624658 9.73619 0.393767 10.0805 0.236593 10.4597C0.0794183 10.839 -0.000912527 11.2457 0.000256723 11.6562V21.8822C0.000256723 22.711 0.329497 23.5059 0.915548 24.092C1.5016 24.678 2.29646 25.0072 3.12526 25.0072H21.8753C22.7041 25.0072 23.4989 24.678 24.085 24.092C24.671 23.5059 25.0003 22.711 25.0003 21.8822V11.6562C25.0014 11.2457 24.9211 10.839 24.7639 10.4597C24.6067 10.0805 24.3759 9.73619 24.0846 9.44683V9.44683ZM15.6253 22.9239H9.37526V18.826C9.37526 17.9972 9.7045 17.2023 10.2905 16.6163C10.8766 16.0302 11.6715 15.701 12.5003 15.701C13.3291 15.701 14.1239 16.0302 14.71 16.6163C15.296 17.2023 15.6253 17.9972 15.6253 18.826V22.9239ZM22.9169 21.8822C22.9169 22.1585 22.8072 22.4235 22.6118 22.6188C22.4165 22.8142 22.1515 22.9239 21.8753 22.9239H17.7086V18.826C17.7086 17.4447 17.1599 16.1199 16.1831 15.1431C15.2064 14.1664 13.8816 13.6177 12.5003 13.6177C11.1189 13.6177 9.79416 14.1664 8.81741 15.1431C7.84066 16.1199 7.29192 17.4447 7.29192 18.826V22.9239H3.12526C2.84899 22.9239 2.58404 22.8142 2.38869 22.6188C2.19334 22.4235 2.08359 22.1585 2.08359 21.8822V11.6562C2.08456 11.3801 2.1942 11.1156 2.3888 10.9197L10.2898 3.02079C10.877 2.43634 11.6718 2.10823 12.5003 2.10823C13.3287 2.10823 14.1235 2.43634 14.7107 3.02079L22.6117 10.9229C22.8056 11.1179 22.9151 11.3812 22.9169 11.6562V21.8822Z" fill="#374957"/>
</g>
<defs>
<clipPath id="clip0_503:1327">
<rect width="25" height="25" fill="white"/>
</clipPath>
</defs>
</svg>
