<svg width="25" height="25" viewBox="0 0 25 25" fill="none" xmlns="http://www.w3.org/2000/svg">
<g clip-path="url(#clip0_503:1337)">
<path d="M23.4947 14.2312L21.5155 7.11038C20.9354 5.02427 19.6746 3.19193 17.9336 1.90462C16.1926 0.617309 14.0712 -0.0510935 11.9067 0.00565666C9.74213 0.0624068 7.65868 0.841053 5.98749 2.21783C4.31629 3.5946 3.15326 5.49049 2.68325 7.60413L1.15096 14.4948C0.981707 15.2561 0.98562 16.0458 1.16241 16.8055C1.3392 17.5652 1.68436 18.2754 2.1724 18.8839C2.66044 19.4923 3.2789 19.9833 3.98212 20.3207C4.68534 20.6582 5.45536 20.8333 6.23534 20.8333H7.39575C7.63483 22.0107 8.2736 23.0692 9.20382 23.8295C10.134 24.5898 11.2985 25.0052 12.4999 25.0052C13.7013 25.0052 14.8658 24.5898 15.796 23.8295C16.7262 23.0692 17.365 22.0107 17.6041 20.8333H18.477C19.2799 20.8334 20.072 20.6478 20.7913 20.291C21.5107 19.9343 22.1378 19.4161 22.6237 18.7769C23.1096 18.1377 23.4411 17.3948 23.5924 16.6063C23.7437 15.8177 23.7106 15.0049 23.4958 14.2312H23.4947ZM12.4999 22.9166C11.8559 22.914 11.2284 22.7124 10.7034 22.3395C10.1783 21.9665 9.78126 21.4405 9.56659 20.8333H15.4333C15.2186 21.4405 14.8216 21.9665 14.2965 22.3395C13.7714 22.7124 13.1439 22.914 12.4999 22.9166V22.9166ZM20.9645 17.5156C20.6742 17.9007 20.2982 18.2127 19.8662 18.427C19.4342 18.6413 18.9582 18.7519 18.476 18.75H6.23534C5.7674 18.7499 5.30546 18.6447 4.88361 18.4422C4.46175 18.2397 4.09076 17.9451 3.798 17.5801C3.50525 17.215 3.29821 16.7889 3.19217 16.3331C3.08613 15.8774 3.0838 15.4036 3.18534 14.9468L4.71659 8.05517C5.0857 6.39497 5.9992 4.9058 7.31185 3.82439C8.62451 2.74298 10.261 2.13139 11.9611 2.08685C13.6613 2.04231 15.3276 2.56738 16.695 3.57858C18.0625 4.58978 19.0527 6.02907 19.5083 7.66767L21.4874 14.7885C21.6182 15.2524 21.639 15.7405 21.5483 16.2138C21.4575 16.6872 21.2576 17.1329 20.9645 17.5156V17.5156Z" fill="#374957"/>
</g>
<defs>
<clipPath id="clip0_503:1337">
<rect width="25" height="25" fill="white"/>
</clipPath>
</defs>
</svg>
