<svg width="25" height="25" viewBox="0 0 25 25" fill="none" xmlns="http://www.w3.org/2000/svg">
<g clip-path="url(#clip0_503:1347)">
<path d="M21.3925 13.2292L20.2155 12.5L21.3936 11.7708C22.2116 11.2845 22.8451 10.5404 23.1946 9.65521C23.4135 9.06995 23.495 8.44226 23.433 7.8205C23.3711 7.19874 23.1672 6.59951 22.8371 6.06898C22.507 5.53844 22.0596 5.09075 21.5292 4.7604C20.9988 4.43004 20.3997 4.22585 19.778 4.16354C18.8294 4.08595 17.8819 4.32557 17.0842 4.84479L16.6665 5.10417V4.34584C16.6841 3.28829 16.3102 2.26155 15.6166 1.463C14.9231 0.664451 13.9588 0.150445 12.9092 0.0197935C12.3303 -0.0373613 11.7458 0.0273402 11.1934 0.209733C10.641 0.392126 10.133 0.688167 9.7019 1.0788C9.27084 1.46943 8.92635 1.946 8.69061 2.47782C8.45488 3.00965 8.33312 3.58494 8.33317 4.16667V5.10417L7.9165 4.84375C7.119 4.32307 6.17102 4.08231 5.22171 4.15938C4.59988 4.22114 4.00053 4.42486 3.46987 4.75485C2.93922 5.08484 2.49142 5.53228 2.16101 6.06267C1.8306 6.59306 1.62639 7.19225 1.56413 7.81403C1.50187 8.43581 1.58323 9.06359 1.80192 9.64896C2.15154 10.5344 2.78544 11.2786 3.604 11.7646L4.78421 12.5L3.60609 13.2292C2.78807 13.7155 2.1546 14.4596 1.80504 15.3448C1.58592 15.9305 1.50433 16.5588 1.56657 17.181C1.62881 17.8033 1.83322 18.4029 2.16401 18.9336C2.4948 19.4643 2.94313 19.9119 3.47438 20.2419C4.00563 20.5718 4.6056 20.7752 5.22796 20.8365C6.17446 20.9138 7.11991 20.6753 7.9165 20.1583L8.33317 19.8958V20.8333C8.33317 21.9384 8.77216 22.9982 9.55356 23.7796C10.335 24.561 11.3948 25 12.4998 25C13.6049 25 14.6647 24.561 15.4461 23.7796C16.2275 22.9982 16.6665 21.9384 16.6665 20.8333V19.8958L17.0832 20.1573C17.8793 20.6747 18.8243 20.9138 19.7707 20.8375C20.3928 20.776 20.9926 20.5723 21.5236 20.2423C22.0546 19.9122 22.5026 19.4646 22.8332 18.9339C23.1638 18.4032 23.368 17.8037 23.4301 17.1816C23.4922 16.5595 23.4106 15.9314 23.1915 15.3458C22.8425 14.4607 22.2099 13.7163 21.3925 13.2292V13.2292ZM21.0686 17.8313C20.7887 18.2804 20.3418 18.6 19.8263 18.7197C19.3108 18.8395 18.7689 18.7496 18.3196 18.4698L16.1748 17.1344C16.017 17.0362 15.8357 16.9821 15.6499 16.9776C15.464 16.9732 15.2804 17.0185 15.118 17.109C14.9556 17.1994 14.8204 17.3317 14.7263 17.492C14.6323 17.6524 14.5828 17.8349 14.5832 18.0208V20.8333C14.5832 21.3859 14.3637 21.9158 13.973 22.3065C13.5823 22.6972 13.0524 22.9167 12.4998 22.9167C11.9473 22.9167 11.4174 22.6972 11.0267 22.3065C10.636 21.9158 10.4165 21.3859 10.4165 20.8333V18.0208C10.4165 17.8351 10.3668 17.6528 10.2726 17.4927C10.1784 17.3327 10.0431 17.2007 9.88076 17.1105C9.71843 17.0203 9.53493 16.9752 9.34927 16.9797C9.16361 16.9843 8.98255 17.0384 8.82484 17.1365L6.68004 18.474C6.45762 18.6125 6.21009 18.7058 5.95159 18.7486C5.69309 18.7915 5.42869 18.783 5.17347 18.7236C4.91825 18.6643 4.67723 18.5553 4.46415 18.4028C4.25107 18.2503 4.07011 18.0573 3.93161 17.8349C3.7931 17.6125 3.69977 17.3649 3.65692 17.1064C3.61408 16.8479 3.62257 16.5835 3.68192 16.3283C3.74126 16.0731 3.85029 15.8321 4.00278 15.619C4.15527 15.4059 4.34824 15.225 4.57067 15.0865L7.30504 13.3844C7.45578 13.291 7.58018 13.1606 7.66644 13.0057C7.7527 12.8507 7.79798 12.6763 7.79798 12.499C7.79798 12.3216 7.7527 12.1472 7.66644 11.9923C7.58018 11.8373 7.45578 11.707 7.30504 11.6135L4.57067 9.9125C4.12146 9.63278 3.80176 9.18607 3.68192 8.67064C3.56207 8.1552 3.65189 7.61328 3.93161 7.16406C4.21133 6.71485 4.65804 6.39516 5.17347 6.27531C5.6889 6.15547 6.23083 6.24528 6.68004 6.525L8.82484 7.86042C8.98233 7.95834 9.1631 8.01244 9.34849 8.01713C9.53388 8.02182 9.71716 7.97693 9.8794 7.8871C10.0416 7.79728 10.177 7.66577 10.2714 7.50615C10.3658 7.34654 10.4159 7.16462 10.4165 6.97917V4.27813C10.4053 3.77099 10.5727 3.27605 10.8896 2.87995C11.2065 2.48385 11.6526 2.21181 12.1498 2.11146C12.4489 2.0605 12.7554 2.07545 13.048 2.15527C13.3407 2.23509 13.6124 2.37785 13.8441 2.57358C14.0759 2.76931 14.2621 3.01328 14.3897 3.28845C14.5174 3.56361 14.5834 3.86333 14.5832 4.16667V6.97917C14.5834 7.16479 14.6332 7.34698 14.7275 7.50689C14.8218 7.66679 14.9571 7.7986 15.1194 7.88868C15.2817 7.97875 15.4651 8.02382 15.6507 8.01922C15.8362 8.01462 16.0172 7.96051 16.1748 7.8625L18.3196 6.52813C18.5421 6.38962 18.7896 6.29629 19.0481 6.25344C19.3066 6.2106 19.571 6.2191 19.8262 6.27844C20.0814 6.33778 20.3224 6.44681 20.5355 6.5993C20.7486 6.7518 20.9296 6.94476 21.0681 7.16719C21.2066 7.38962 21.2999 7.63715 21.3427 7.89564C21.3856 8.15414 21.3771 8.41855 21.3178 8.67376C21.2584 8.92898 21.1494 9.17001 20.9969 9.38309C20.8444 9.59617 20.6514 9.77712 20.429 9.91563L17.6946 11.6177C17.5439 11.7111 17.4195 11.8415 17.3332 11.9964C17.247 12.1514 17.2017 12.3258 17.2017 12.5031C17.2017 12.6805 17.247 12.8549 17.3332 13.0098C17.4195 13.1648 17.5439 13.2951 17.6946 13.3885L20.429 15.0906C20.6516 15.2289 20.8447 15.4098 20.9973 15.6228C21.1499 15.8358 21.259 16.0768 21.3184 16.332C21.3778 16.5872 21.3863 16.8516 21.3435 17.1101C21.3006 17.3686 21.2072 17.6162 21.0686 17.8385V17.8313Z" fill="#374957"/>
</g>
<defs>
<clipPath id="clip0_503:1347">
<rect width="25" height="25" fill="white"/>
</clipPath>
</defs>
</svg>
