<svg width="25" height="25" viewBox="0 0 25 25" fill="none" xmlns="http://www.w3.org/2000/svg">
<g clip-path="url(#clip0_503:1350)">
<path d="M12.5 12.4999C13.7361 12.4999 14.9445 12.1333 15.9723 11.4466C17.0001 10.7598 17.8012 9.78369 18.2742 8.64165C18.7473 7.49961 18.8711 6.24295 18.6299 5.03057C18.3888 3.81819 17.7935 2.70454 16.9194 1.83046C16.0453 0.956385 14.9317 0.36113 13.7193 0.119973C12.5069 -0.121185 11.2503 0.00258597 10.1082 0.475634C8.96619 0.948681 7.99007 1.74976 7.30331 2.77757C6.61656 3.80537 6.25 5.01375 6.25 6.24988C6.25165 7.90698 6.91067 9.49573 8.08241 10.6675C9.25415 11.8392 10.8429 12.4982 12.5 12.4999ZM12.5 2.08321C13.3241 2.08321 14.1297 2.32758 14.8149 2.78542C15.5001 3.24326 16.0341 3.89401 16.3495 4.65537C16.6649 5.41673 16.7474 6.2545 16.5866 7.06276C16.4258 7.87101 16.029 8.61344 15.4463 9.19616C14.8636 9.77888 14.1211 10.1757 13.3129 10.3365C12.5046 10.4973 11.6668 10.4147 10.9055 10.0994C10.1441 9.78401 9.49338 9.24996 9.03554 8.56476C8.5777 7.87955 8.33333 7.07397 8.33333 6.24988C8.33333 5.14481 8.77232 4.085 9.55372 3.3036C10.3351 2.5222 11.3949 2.08321 12.5 2.08321V2.08321Z" fill="#2C8CF4"/>
<path d="M12.5 14.584C10.0144 14.5867 7.63148 15.5753 5.87392 17.3329C4.11636 19.0905 3.12776 21.4734 3.125 23.959C3.125 24.2353 3.23475 24.5002 3.4301 24.6956C3.62545 24.8909 3.8904 25.0007 4.16667 25.0007C4.44293 25.0007 4.70789 24.8909 4.90324 24.6956C5.09859 24.5002 5.20833 24.2353 5.20833 23.959C5.20833 22.0251 5.97656 20.1705 7.34401 18.803C8.71147 17.4355 10.5661 16.6673 12.5 16.6673C14.4339 16.6673 16.2885 17.4355 17.656 18.803C19.0234 20.1705 19.7917 22.0251 19.7917 23.959C19.7917 24.2353 19.9014 24.5002 20.0968 24.6956C20.2921 24.8909 20.5571 25.0007 20.8333 25.0007C21.1096 25.0007 21.3746 24.8909 21.5699 24.6956C21.7653 24.5002 21.875 24.2353 21.875 23.959C21.8722 21.4734 20.8836 19.0905 19.1261 17.3329C17.3685 15.5753 14.9856 14.5867 12.5 14.584V14.584Z" fill="#2C8CF4"/>
</g>
<defs>
<clipPath id="clip0_503:1350">
<rect width="25" height="25" fill="white"/>
</clipPath>
</defs>
</svg>
